<?xml version="1.0" encoding="utf-8"?>
<!-- Generator: Adobe Illustrator 25.0.1, SVG Export Plug-In . SVG Version: 6.00 Build 0)  -->
<svg version="1.1" id="Layer_1" xmlns="http://www.w3.org/2000/svg" xmlns:xlink="http://www.w3.org/1999/xlink" x="0px" y="0px"
	 viewBox="0 0 464.7 132.8" style="enable-background:new 0 0 464.7 132.8;" xml:space="preserve">
<path d="M49.2,26.5C49.4,26.2,49.4,26.1,49.2,26.5L49.2,26.5z"/>
<path d="M61.8,26.5C61.6,26.1,61.6,26.3,61.8,26.5L61.8,26.5z"/>
<path d="M99.1,16l-1.2-0.3c-13.4-3.8-30.7-5.5-42.4-5.7C42.7,9.8,26,12,13.1,15.7l-1.2,0.3l-0.2,51.3c-0.1,12.1,3.4,22.9,10.3,32.1
	c7.4,9.6,17.1,16.9,29,21.8c0.1,0,3.9,1.3,3.9,1.3l0.5,0.2l2-0.6l2.4-0.8c11.9-4.9,21.6-12.3,29-21.8c7-9.2,10.5-20,10.4-32.1
	L99.1,16z M55.5,14l5.2,10.5c0.2,0.5,0.8,1.5,1.2,2.1c0.2,0.2,0.5,0.4,0.8,0.3c1-0.3,1.6-0.5,2.3-0.8l5.2-2.9l-3.8,18.6
	c-0.9,3.1,1.1,4.2,2.5,3.1l0.7-0.7l8.4-8.9l3,5.6c0.4,0.5,1,0.4,1.7,0.3c0.4-0.1,0.8-0.2,1.2-0.2l7.4-2l-2.5,8.8
	c0,0-0.7,1.9-0.6,1.9c-0.3,1-0.3,0.9-0.3,1.3c0,0,0,0,0,0.1c0-0.1,0-0.1,0.1,0.1c0,0.6,0.6,1.3,1,1.6l3.2,1.7l-10.4,9.2L81,63.4l0,0
	c-6-2.1-11-3.3-15.8-3.7c-3.9-0.4-7.1,0.1-9.6,1.3c-2.5-1.2-5.7-1.7-9.6-1.3c-4.8,0.5-9.8,1.6-15.8,3.7l0,0l-0.7,0.3l-10.4-9.2
	l3.2-1.7c0.3-0.2,0.9-1,1-1.6c0-0.2,0-0.2,0-0.1c0,0,0,0,0,0c-0.1-0.4,0-0.3-0.3-1.3c0,0-0.6-1.9-0.6-1.9L19.8,39l7.4,2
	c0.4,0,0.8,0.2,1.2,0.2c0.7,0.1,1.2,0.2,1.7-0.3l3-5.6l8.4,8.9l0.7,0.7c1.4,1.1,3.4-0.1,2.5-3.1l-3.8-18.6L46,26
	c0.7,0.3,1.3,0.5,2.3,0.8c0.3,0.1,0.6-0.1,0.8-0.3c0.4-0.6,1-1.6,1.2-2.1L55.5,14z M60.9,90.3c-0.6,0.6-1.9,0.5-2.9,0.6
	c-1,0-1.5,0.1-2.5,0.1c-1,0-1.5,0-2.5-0.1c-1-0.1-2.3,0-2.9-0.6c-0.1-0.2-0.1-0.4,0-0.6c-5.4-0.2-9.4,0-14.2,0.6
	c-3.8,0.4-10.7,1.4-14.1,2l5.9-24.8l1.1-0.3l0.2-1.1l1.8-0.7c5-1.7,10-3.1,15.3-3.6c3.4-0.3,6.8-0.1,9.4,1.6c2.6-1.7,6-1.9,9.4-1.6
	c5.2,0.5,10.3,1.9,15.3,3.6L82,66l0.2,1.1l1.1,0.3l5.8,24.8c-3.3-0.6-10.2-1.6-14-2c-4.7-0.5-8.8-0.7-14.2-0.6
	C61,89.9,61,90.1,60.9,90.3z M13.4,67.1c0,0,0-37,0.2-50c11.9-3.4,27.6-5.7,40.3-5.7l-0.7,1.4L48,23.4l0,0c0,0-0.1,0.2-0.3,0.6
	c-0.2-0.1-0.4-0.2-0.6-0.2c-0.3-0.2-9.9-5.6-9.9-5.6s4.3,20.9,4.7,22.9c-1.9-2-9.5-10-9.5-10s-3.2,6.2-4,7.6c-0.1,0-0.9-0.2-1-0.2
	l0.5,0.1l-11.7-3.2L20,48.9c0,0,0,0,0,0c0.1,0.2,0.2,0.6,0.3,1c0.1,0.2,0.2,0.7,0.2,0.8c-0.7,0.4-6,3.1-6,3.1S21.5,60,27.2,65
	c-0.1,0.2-0.1,0.5-0.1,0.6c-0.1,0-1,0.3-1,0.3l-6.4,26.5C15.4,84.8,13.4,76.3,13.4,67.1z M87.6,98.2c-7.6,9.9-17.4,16.7-28.3,21.3
	c-1.1,0.5-2.7,0.9-3.8,1.3c-1.1-0.4-2.7-0.8-3.8-1.3c-10.9-4.5-20.7-11.4-28.3-21.3c-0.9-1.2-1.7-2.4-2.5-3.7l1.3-0.2
	c3.4-0.6,10.3-1.6,13.9-2c0.3,0,0.5-0.1,0.8-0.1c0.1,0,0.3,0,0.4,0c0.1,0,0.2,0,0.4,0c0.2,0,0.4,0,0.6-0.1c0.1,0,0.1,0,0.2,0
	c0.2,0,0.4,0,0.6-0.1c0,0,0.1,0,0.1,0c0.2,0,0.5,0,0.7-0.1c0,0,0,0,0,0c0.2,0,0.5,0,0.7,0c0,0,0,0,0,0c0.5,0,1-0.1,1.5-0.1
	c2.1-0.1,4.2-0.1,6.4-0.1c0,0,0.1,0.1,0.1,0.1c1.1,1,2.5,1.1,3.6,1.2l0.6,0l2.6,0.1l2,0l0.6,0l0.6,0c1.1-0.1,2.5-0.2,3.6-1.2
	c0,0,0,0,0.1-0.1c2.7-0.1,5,0,7.5,0.1c0.4,0,0.8,0,1.2,0.1c0,0,0.1,0,0.1,0c0.4,0,0.8,0.1,1.1,0.1c0,0,0,0,0,0
	c0.4,0,0.8,0.1,1.1,0.1c0.1,0,0.2,0,0.2,0c0.4,0,0.8,0.1,1.2,0.1c3.6,0.4,10.5,1.4,13.9,2l1.3,0.2C89.3,95.8,88.5,97,87.6,98.2z
	 M91.3,92.4l-6.2-26.5c0,0-0.9-0.3-1-0.3c0-0.1-0.1-0.4-0.1-0.6c5.6-5,12.4-11,12.4-11s-5.3-2.7-6-3.1c0-0.1,0.2-0.5,0.2-0.7
	c0.1-0.4,0.4-1.3,0.4-1.3s0,0,0,0.1c0,0,0-0.2,0-0.2l0,0c0,0,0.1-0.1,0.1-0.1l3.7-13.1l-11.7,3.2l0.5-0.1c0,0-0.9,0.2-1,0.2
	c-0.8-1.4-4-7.6-4-7.6s-7.6,8-9.5,10c0.4-2,4.7-22.9,4.7-22.9s-9.6,5.5-9.9,5.6c-0.2,0.1-0.4,0.2-0.6,0.2c-0.2-0.4-0.3-0.5-0.3-0.6
	l0,0l-5.9-11.8c12.7,0.4,28.4,2.2,40.3,5.6c0.1,13,0.2,50,0.2,50C97.6,76.3,95.6,84.8,91.3,92.4z"/>
<path d="M183.4,35.3h-2.8c-0.4-13.5-5.8-19.8-18.4-19.8c-18.1,0-20.6,15.8-20.6,31.1c0,13,1.5,31.2,19.1,31.2
	c12.8,0,19.5-8.8,19.9-21.9h2.8v18.2c-8.3,4.5-15.5,6.5-22.9,6.5c-20,0-31-14.3-31-34.1c0-19.6,12.3-34,32.2-34
	c7.3,0,15,2.2,21.7,5.3V35.3z"/>
<path d="M204.3,53c3.8-0.9,6.6-1.8,10.1-2.9v-3.9c0-6.4-1.1-10.5-7.2-10.5c-4.6,0-7.4,1.4-7.4,7.5c0,3.6-1.4,5.3-4.6,5.3
	c-2.4,0-4.6-1.1-4.6-3.9c0-8.8,8.9-11.1,16.3-11.1c14.1,0,16.9,5.8,16.9,13.5v23.4c0,7,2.1,7.1,7.3,7.1v2.3h-7
	c-5.2,0-8.8-0.5-10.2-6c-3.6,5.5-8.1,7.1-14.2,7.1c-9.6,0-12.6-5-12.6-13.4c0-7.6,4-11.2,11.7-13.1L204.3,53z M204.8,55.5
	c-5.5,1.7-7.3,3.7-7.3,11.8c0,5.6,1,10.6,6,10.6c8,0,10.9-10.1,10.9-16.4v-8.8L204.8,55.5z"/>
<path d="M237.6,36.8h-7.9v-2.3H247v10.6h0.2c1.9-5.3,5.9-11.7,12.9-11.7c5.4,0,8.4,3.5,8.4,8.8c0,3.7-1.5,6.2-4.8,6.2
	c-2.5,0-4.6-1.8-4.6-4.7c0-1.3,0.5-3.5,0.5-4.7c0-1.3-0.9-2.3-2.3-2.3c-4.8,0-10.2,10.5-10.2,20.5v20.2h7.6v2.3h-24.8v-2.3h7.8V36.8
	z"/>
<path d="M265.8,13.7h17.3v63.6h7.9v2.3h-25.2v-2.3h7.9V16h-7.9V13.7z"/>
<path d="M299.4,54.2v0.7c0,12.9,1.8,22.9,13.6,22.9c8.4,0,12.6-5.2,15-11.8l2,0.7c-4,10.7-10.2,13.9-20.4,13.9
	c-13.8,0-20.8-10.7-20.8-23.7c0-12.4,8-23.7,21.5-23.7c11.8,0,19.8,8.5,19.8,20.8H299.4z M319.1,51.3c0-6.6-0.4-15.7-9.8-15.7
	c-7.9,0-10,9.9-10,15.7H319.1z"/>
<path d="M330.2,34.5h6.4V22.2h9.4v12.3h10.2v2.3H346v32.1c0,5.4,1.1,8,4.9,8c3.5,0,5-2.6,6.4-5.5l2.1,0.9l-0.8,1.7
	c-1.8,3.3-5,6.3-11.6,6.3c-9.6,0-10.4-5.4-10.4-11.3V36.8h-6.4V34.5z"/>
<path d="M379.9,33.4c16.4,0,21.5,14.4,21.5,23.7c0,9.3-5.1,23.7-21.5,23.7c-16.4,0-21.5-14.4-21.5-23.7
	C358.4,47.7,363.5,33.4,379.9,33.4z M379.9,78.4c10.9,0,11-11.7,11-21.4c0-9.7-0.1-21.4-11-21.4c-10.9,0-11,11.7-11,21.4
	C368.9,66.7,369,78.4,379.9,78.4z"/>
<path d="M409.2,77.3V36.8h-7.9v-2.3h17.3v8.7h0.2c2.9-6.3,8.4-9.8,15.9-9.8c9,0,13.5,3.8,13.5,13v31h7.3v2.3h-24v-2.3h7.3V46.8
	c0-5.1-0.9-10.1-7.4-10.1c-8.6,0-12.9,8.1-12.9,16.7v24h7.3v2.3h-24.6v-2.3H409.2z"/>
<path d="M156.5,112c0,4.8-3.2,8.3-9.4,8.3c-6.2,0-9.4-3.5-9.4-8.3V99.6h4.9v12.2c0,2.5,1.9,4.4,4.5,4.4c2.6,0,4.5-1.9,4.5-4.4V99.6
	h4.9V112z"/>
<path d="M175.1,99.6h6.7l9.5,14h0.1v-14h4.9v20.2h-6.4l-9.7-14.4H180v14.4h-4.9V99.6z"/>
<path d="M215,99.6h4.9v20.2H215V99.6z"/>
<path d="M236.1,99.6h5.6l5.5,13.2h0.1l5.6-13.2h5.2l-9.2,20.2H245L236.1,99.6z"/>
<path d="M272.7,99.6h15.1v4.1h-10.2v3.8h9.6v4.1h-9.6v4.1h10.8v4.1h-15.7V99.6z"/>
<path d="M306.7,99.6h8.6c4.6,0,8.4,1.4,8.4,6.1c0,2.8-1.7,5-4.8,5.5l5.7,8.5h-5.9l-4.6-8.1h-2.4v8.1h-4.9V99.6z M311.6,108h2.9
	c1.8,0,4.1-0.1,4.1-2.3c0-2-2-2.3-3.8-2.3h-3.2V108z"/>
<path d="M353.6,104.5c-0.8-0.9-2.4-1.3-3.5-1.3c-1.4,0-3.3,0.6-3.3,2.1c0,3.7,10.2,1.3,10.2,8.4c0,4.5-4,6.7-8.6,6.7
	c-2.9,0-5.4-0.8-7.5-2.5l3.5-3.5c1,1.2,2.6,1.9,4.3,1.9c1.6,0,3.4-0.7,3.4-2.1c0-3.7-10.4-1.7-10.4-8.5c0-4.3,4.1-6.6,8.5-6.6
	c2.5,0,4.9,0.6,6.8,2.1L353.6,104.5z"/>
<path d="M375.2,99.6h4.9v20.2h-4.9V99.6z"/>
<path d="M402.8,103.5h-6.3v-3.9H414v3.9h-6.3v16.3h-4.9V103.5z"/>
<path d="M435.8,111.2l-8.4-11.6h6.1l4.7,7.6l5-7.6h5.8l-8.4,11.6v8.6h-4.9V111.2z"/>
<g>
	<path d="M46.3,62.5c-5.6,0.5-11.1,2-16.3,4L24.9,89c6.8-2.3,13.2-3.9,20.4-4.3c3.4-0.2,6.8,0,9.6,1.5L55,64.1
		C53.2,62.8,50,62.3,46.3,62.5z M51.8,79.2c-3.2-1.3-6.9-0.9-10.2-0.4c-4,0.7-8,1.8-12.6,3.3l0.2-1.1c0,0,7.9-2.8,15.3-3.6
		c0,0,4.3-0.5,7.2,0.8V79.2z M51.8,74.4c-3.2-1.3-6.9-0.9-10.2-0.4c-4,0.7-6.8,1.1-11.3,2.6l0.2-1.1c0,0,6.6-2.1,14.1-3
		c0,0,4.3-0.5,7.2,0.8V74.4z M51.8,69.5c-3.2-1.3-6.9-0.9-10.2-0.4c-4,0.7-5.8,1.2-10.2,2.7l0.2-1.1c0,0,5.5-2.1,12.9-3
		c0,0,4.3-0.5,7.2,0.8V69.5z"/>
</g>
<g>
	<path d="M81,66.5c-5.2-2-10.6-3.5-16.3-4c-3.7-0.2-6.9,0.2-8.7,1.6l0.1,22.1c2.8-1.5,6.2-1.7,9.6-1.5c7.2,0.5,13.6,2,20.3,4.3
		L81,66.5z M59.2,68.5c3-1.3,7.2-0.8,7.2-0.8c7.4,0.9,12.9,3,12.9,3l0.2,1.1c-4.4-1.5-6.2-2-10.2-2.7c-3.4-0.6-7-1-10.2,0.4V68.5z
		 M59.2,73.3c3-1.3,7.2-0.8,7.2-0.8c7.4,0.9,14.1,3,14.1,3l0.2,1.1c-4.5-1.5-7.3-1.9-11.3-2.6c-3.4-0.6-7-1-10.2,0.4V73.3z
		 M59.2,79.2v-1c3-1.3,7.2-0.8,7.2-0.8c7.4,0.9,15.3,3.6,15.3,3.6l0.2,1.1c-4.6-1.5-8.6-2.6-12.6-3.3C66.1,78.3,62.4,77.9,59.2,79.2
		z"/>
</g>
</svg>
